<mxfile host="app.diagrams.net" modified="2024-03-02T06:15:33.259Z" agent="Mozilla/5.0 (Windows NT 10.0; Win64; x64) AppleWebKit/537.36 (KHTML, like Gecko) Chrome/121.0.0.0 Safari/537.36" version="24.0.0" etag="G-Qz2ieTKQuV80DkO7-h" type="github">
  <diagram name="Page-1" id="8IX1eqMmuFNzpPXDTjS2">
    <mxGraphModel>
      <root>
        <mxCell id="0" />
        <mxCell id="1" parent="0" />
      </root>
    </mxGraphModel>
  </diagram>
</mxfile>
